HIERARCHY
ROOT Hips
{
  OFFSET -187.679 86.5976 -156.378
  CHANNELS 6 Xposition Yposition Zposition Zrotation Xrotation Yrotation
  JOINT LeftUpLeg
  {
    OFFSET 8.64259 1.95398 -2.38835
    CHANNELS 3 Zrotation Xrotation Yrotation
    JOINT LeftLeg
    {
      OFFSET 43.7702 0 0
      CHANNELS 3 Zrotation Xrotation Yrotation
      JOINT LeftFoot
      {
        OFFSET 40.6238 0 0
        CHANNELS 3 Zrotation Xrotation Yrotation
        JOINT LeftToeBase
        {
          OFFSET 12.7242 0 0
          CHANNELS 3 Zrotation Xrotation Yrotation
          End Site
          {
            OFFSET 0 0 0
          }
        }
      }
    }
  }
  JOINT RightUpLeg
  {
    OFFSET -8.2249 1.95398 -2.59336
    CHANNELS 3 Zrotation Xrotation Yrotation
    JOINT RightLeg
    {
      OFFSET 43.5653 0 0
      CHANNELS 3 Zrotation Xrotation Yrotation
      JOINT RightFoot
      {
        OFFSET 40.6238 0 0
        CHANNELS 3 Zrotation Xrotation Yrotation
        JOINT RightToeBase
        {
          OFFSET 12.7242 0 0
          CHANNELS 3 Zrotation Xrotation Yrotation
          End Site
          {
            OFFSET 0 0 0
          }
        }
      }
    }
  }
  JOINT Spine
  {
    OFFSET 0.165834 0.87714 6.61349
    CHANNELS 3 Zrotation Xrotation Yrotation
    JOINT Spine1
    {
      OFFSET 7.38963 1.71661e-005 0
      CHANNELS 3 Zrotation Xrotation Yrotation
      JOINT Spine2
      {
        OFFSET 11.9445 1.14441e-005 0
        CHANNELS 3 Zrotation Xrotation Yrotation
        JOINT Spine3
        {
          OFFSET 14.7254 4.19617e-005 0
          CHANNELS 3 Zrotation Xrotation Yrotation
          JOINT Spine4
          {
            OFFSET 10.9679 0 0
            CHANNELS 3 Zrotation Xrotation Yrotation
            JOINT RightShoulder
            {
              OFFSET 2.46616 -1.6653 3.69651
              CHANNELS 3 Zrotation Xrotation Yrotation
              JOINT RightArm
              {
                OFFSET 13.0012 0 0
                CHANNELS 3 Zrotation Xrotation Yrotation
                JOINT RightForeArm
                {
                  OFFSET 28.7848 1.52588e-005 0
                  CHANNELS 3 Zrotation Xrotation Yrotation
                  JOINT RightHand
                  {
                    OFFSET 26.5688 1.52588e-005 0
                    CHANNELS 3 Zrotation Xrotation Yrotation
                    End Site
                    {
                      OFFSET 0 0 0
                    }
                  }
                }
              }
            }
            JOINT LeftShoulder
            {
              OFFSET 2.38034 -1.29275 -3.7523
              CHANNELS 3 Zrotation Xrotation Yrotation
              JOINT LeftArm
              {
                OFFSET 16.3182 6.10352e-005 0
                CHANNELS 3 Zrotation Xrotation Yrotation
                JOINT LeftForeArm
                {
                  OFFSET 27.0901 0 0
                  CHANNELS 3 Zrotation Xrotation Yrotation
                  JOINT LeftHand
                  {
                    OFFSET 24.5451 1.52588e-005 0
                    CHANNELS 3 Zrotation Xrotation Yrotation
                    End Site
                    {
                      OFFSET 0 0 0
                    }
                  }
                }
              }
            }
            JOINT Neck
            {
              OFFSET 5.0226 -0.0266342 0
              CHANNELS 3 Zrotation Xrotation Yrotation
              JOINT Head
              {
                OFFSET 6.69363 2.86102e-005 0
                CHANNELS 3 Zrotation Xrotation Yrotation
                End Site
                {
                  OFFSET 0 0 0
                }
              }
            }
          }
        }
      }
    }
  }
}
MOTION
Frames:	7
Frame Time:	0.0416667
-84.3777 97.474 -83.2237 102.969 -69.8729 100.372 -172.702 13.9017 91.6423 -47.4192 42.2812 5.89158 76.2036 9.60488 3.43311 20.5492 0.308984 -8.84361 163.651 -0.919252 80.9689 -45.3525 22.673 6.36276 79.4094 -7.19937 2.14423 32.7828 0.216843 1.57368 1.05121 8.12579 -90.0053 10.6252 2.09109 -0.200199 -1.04411 2.08025 -0.292089 -23.5924 2.05454 0.437792 -3.57979 2.05453 0.437789 84.9896 -48.0056 -108.871 17.0803 -24.1898 -1.83029 -39.6559 7.11102 -80.1746 -5.36261 -0.14464 -2.07619 -89.9349 -45.8069 78.1126 -8.7304 12.5434 -13.7854 -146.928 -1.08913 -77.6804 -10.5786 0.779109 -16.1951 20.8251 32.3932 8.91732 15.3585 26.9649 -10.4148 
-84.4663 98.542 -82.1996 100.24 -65.9646 98.1426 -173.056 12.3383 92.3058 -44.6752 46.6155 7.67865 74.4658 8.86216 3.77707 21.1472 0.221414 -8.14449 163.119 -0.728861 81.1557 -44.1462 22.3638 7.58353 78.3527 -6.90391 1.72712 32.516 -0.0311777 2.38768 0.872335 8.05208 -90.1432 10.7742 1.671 -0.438916 -0.895767 1.65005 -0.512061 -23.4395 1.72563 0.0837289 -3.42687 1.72564 0.0837238 84.9345 -48.4144 -108.819 19.2207 -28.8882 -1.29554 -37.7191 -2.07685 -64.8741 -5.14941 -0.044209 -4.43106 -89.7897 -44.7429 78.0892 -7.61894 7.62642 -21.1628 -147.321 -2.30733 -76.8871 -12.3867 1.02558 -16.77 18.8685 34.2265 10.1389 17.1395 28.3918 -11.0419 
-84.9631 99.5987 -81.2013 98.2028 -63.1906 96.4561 -173.211 10.6871 92.8879 -41.3096 50.3933 9.25514 72.5148 8.26715 5.17554 21.0222 0.543024 -9.07804 163.285 -1.11095 81.3719 -40.7762 25.3711 8.67322 77.2922 -6.41568 3.08535 31.8584 -0.143347 2.38002 0.795986 7.93825 -90.179 11.0013 1.50181 -0.499582 -0.668911 1.47838 -0.565212 -23.211 1.58251 -0.0250164 -3.19836 1.58251 -0.0250268 84.794 -49.1365 -108.795 22.4254 -28.3381 0.768166 -33.8854 -11.7837 -50.869 -5.93504 0.0542754 -6.64797 -89.1772 -43.2991 78.729 -7.90716 4.21346 -27.0187 -148.237 -3.60821 -76.644 -13.3816 1.13718 -16.8366 19.3564 35.4979 10.0874 16.9825 29.5317 -11.7762 
-85.6042 100.249 -80.0372 97.3017 -61.1671 95.6656 -173.042 9.07498 93.6821 -38.6221 52.9027 10.4596 71.123 7.37663 4.54798 22.8749 0.507147 -7.47141 163.407 -1.8487 81.4288 -36.3482 24.2519 8.8383 75.7238 -6.18144 0.693562 32.6986 0.5003 0.38418 0.813183 7.88134 -90.2359 11.116 1.50914 -0.616315 -0.554257 1.48056 -0.68216 -23.0963 1.62458 -0.134162 -3.08369 1.62459 -0.134147 85.7759 -48.4274 -107.526 25.8888 -27.5861 3.12513 -24.4389 -13.6689 -35.6395 -7.17352 0.230947 -9.43799 -88.8774 -42.1824 78.9568 -10.0232 0.649517 -32.3689 -146.84 -4.49539 -76.6455 -14.1053 1.28397 -17.4673 19.4939 36.3822 10.8769 16.9343 30.1138 -12.3455 
-86.5655 100.359 -78.9872 96.1887 -59.5345 94.2168 -172.883 8.6487 94.1822 -37.3008 53.8352 11.2018 70.8461 6.86251 2.80121 23.9099 0.440989 -6.3673 163.532 -1.78547 81.134 -33.5273 24.9467 8.38251 75.2187 -6.26307 1.30399 33.1268 0.303754 1.44884 0.779068 7.82681 -90.1865 11.2243 1.46377 -0.515593 -0.446004 1.43967 -0.579536 -22.9877 1.55105 -0.0517323 -2.97508 1.55104 -0.0517326 86.6547 -47.7622 -106.368 29.2734 -26.6197 5.96703 -19.0531 -13.4882 -25.9811 -7.6426 0.3002 -10.2115 -88.6844 -42.0733 79.2483 -11.7719 -1.92822 -36.4497 -145.076 -5.74139 -77.9463 -14.209 1.37379 -18.2085 19.2178 36.8644 11.2065 16.9723 30.5261 -12.4524 
-88.0314 100.275 -77.7339 95.635 -58.3219 93.1429 -172.57 8.34558 94.6576 -37.5616 56.8892 12.7427 69.8705 7.31754 5.17877 26.3472 1.19464 -6.28841 163.767 -2.03377 81.3148 -31.2023 24.292 7.55784 73.6645 -6.17385 1.08162 33.5501 0.398854 1.34417 0.757933 7.85364 -90.1431 11.1697 1.44196 -0.425873 -0.500519 1.42184 -0.488946 -23.0421 1.50328 0.027282 -3.02943 1.50329 0.0272758 87.7386 -46.6939 -105.001 32.1198 -25.0942 7.8607 -16.2715 -13.0715 -20.2182 -8.7685 0.327125 -9.88879 -89.4427 -42.9567 78.2192 -12.2819 -3.43759 -39.8638 -143.451 -8.13584 -82.1929 -13.873 1.34636 -18.3512 19.1215 35.0209 10.882 16.5824 28.8264 -12.3757 
-89.8962 99.8372 -76.2025 95.3231 -57.7614 91.5424 -172.54 6.8706 94.8847 -34.9655 56.4375 13.0191 71.0358 7.50407 3.64569 27.3882 0.797593 -4.02955 163.612 -1.90241 80.9235 -30.6452 25.0022 7.58305 72.5749 -5.77953 2.75065 33.595 0.545166 0.764901 0.595566 7.83827 -89.8833 11.1973 1.23957 0.110665 -0.473094 1.24322 0.0559923 -23.0124 1.14901 0.478142 -2.9998 1.14901 0.478141 87.7791 -46.7143 -104.93 34.6109 -23.8823 9.46418 -14.9859 -12.305 -17.1749 -7.79982 0.324965 -10.505 -89.6699 -43.726 78.0382 -11.032 -3.27389 -41.3334 -143.377 -12.2205 -89.5692 -12.8159 1.16449 -17.8146 18.8493 28.1842 6.92586 13.6714 23.7075 -10.5432 
